<svg width="200" height="45" viewBox="0 0 200 45" fill="none" xmlns="http://www.w3.org/2000/svg">
<path d="M67.76 25.632V30H63.44V25.68L58.832 16.32H63.224L65.048 20.76C65.24 21.208 65.416 21.68 65.576 22.176H65.624C65.8 21.632 65.976 21.144 66.152 20.712L67.952 16.32H72.32L67.76 25.632ZM77.5464 30.312C75.6264 30.312 74.1864 29.864 73.2264 28.968C72.2824 28.056 71.8104 26.624 71.8104 24.672C71.8104 23.6 71.9064 22.664 72.0984 21.864C72.3064 21.048 72.5544 20.48 72.8424 20.16C73.2104 19.744 73.8824 19.4 74.8584 19.128C75.8504 18.856 76.7784 18.72 77.6424 18.72C79.7064 18.72 81.1784 19.16 82.0584 20.04C82.9384 20.92 83.3784 22.328 83.3784 24.264C83.3784 26.344 82.9064 27.872 81.9624 28.848C81.0184 29.824 79.5464 30.312 77.5464 30.312ZM77.6184 27.504C78.2424 27.504 78.6504 27.288 78.8424 26.856C79.0344 26.408 79.1304 25.624 79.1304 24.504C79.1304 23.72 79.0904 23.12 79.0104 22.704C78.9304 22.272 78.7784 21.96 78.5544 21.768C78.3464 21.56 78.0184 21.456 77.5704 21.456C76.9304 21.456 76.5624 21.512 76.4664 21.624C76.3384 21.736 76.2344 22.088 76.1544 22.68C76.0744 23.272 76.0344 23.888 76.0344 24.528C76.0344 25.616 76.1384 26.384 76.3464 26.832C76.5704 27.28 76.9944 27.504 77.6184 27.504ZM95.6249 19.656C95.7689 19.832 95.8729 20.272 95.9369 20.976C96.0169 21.68 96.0569 22.752 96.0569 24.192V30H91.9529V24.24C91.9529 24.176 91.9529 23.864 91.9529 23.304C91.9529 22.728 91.9129 22.376 91.8329 22.248C91.7849 22.184 91.6649 22.136 91.4729 22.104C91.2969 22.072 91.0889 22.056 90.8489 22.056L90.4409 22.08C89.9929 22.096 89.5289 22.2 89.0489 22.392V30H84.9449V15.6L89.0489 15.432V18.24C89.0489 19.392 89.0089 20.16 88.9289 20.544L88.9529 20.568C90.0409 19.336 91.3449 18.72 92.8649 18.72C93.4409 18.72 93.9769 18.8 94.4729 18.96C94.9849 19.12 95.3689 19.352 95.6249 19.656ZM104.529 30L104.145 28.488C103.409 29.688 102.385 30.288 101.073 30.288C100.001 30.288 99.1208 29.992 98.4328 29.4C97.7608 28.792 97.4248 27.944 97.4248 26.856C97.4248 26.184 97.6168 25.6 98.0008 25.104C98.4008 24.592 98.9448 24.232 99.6328 24.024C100.529 23.768 101.913 23.624 103.785 23.592C103.785 22.536 103.737 21.976 103.641 21.912C103.561 21.848 103.305 21.816 102.873 21.816C102.601 21.816 102.225 21.832 101.745 21.864C100.977 21.896 99.9368 21.984 98.6248 22.128C98.4968 21.264 98.4008 20.336 98.3368 19.344C99.1848 19.168 100.073 19.024 101.001 18.912C101.929 18.784 102.761 18.72 103.497 18.72C104.777 18.72 105.737 18.936 106.377 19.368C107.017 19.784 107.433 20.336 107.625 21.024C107.817 21.712 107.905 22.584 107.889 23.64L107.865 27.168L107.937 30H104.529ZM102.465 27.6C102.881 27.6 103.321 27.52 103.785 27.36V25.584H103.593C102.409 25.584 101.753 25.648 101.625 25.776C101.545 25.856 101.481 25.976 101.433 26.136C101.401 26.296 101.385 26.448 101.385 26.592C101.385 26.976 101.473 27.24 101.649 27.384C101.825 27.528 102.097 27.6 102.465 27.6ZM120.422 19.656C120.566 19.832 120.67 20.272 120.734 20.976C120.814 21.68 120.854 22.752 120.854 24.192V30H116.75V24.24V23.256C116.75 22.744 116.71 22.424 116.63 22.296C116.502 22.136 116.206 22.056 115.742 22.056C115.518 22.056 115.35 22.064 115.238 22.08C114.79 22.096 114.326 22.2 113.846 22.392V30H109.742V18.96H113.078L113.534 20.808C114.686 19.416 116.062 18.72 117.662 18.72C118.238 18.72 118.774 18.8 119.27 18.96C119.782 19.12 120.166 19.352 120.422 19.656ZM133.43 19.656C133.574 19.832 133.678 20.272 133.742 20.976C133.822 21.68 133.862 22.752 133.862 24.192V30H129.758V24.24V23.256C129.758 22.744 129.718 22.424 129.638 22.296C129.51 22.136 129.214 22.056 128.75 22.056C128.526 22.056 128.358 22.064 128.246 22.08C127.798 22.096 127.334 22.2 126.854 22.392V30H122.75V18.96H126.086L126.542 20.808C127.694 19.416 129.07 18.72 130.67 18.72C131.246 18.72 131.782 18.8 132.278 18.96C132.79 19.12 133.174 19.352 133.43 19.656ZM142.333 30L141.949 28.488C141.213 29.688 140.189 30.288 138.877 30.288C137.805 30.288 136.925 29.992 136.237 29.4C135.565 28.792 135.229 27.944 135.229 26.856C135.229 26.184 135.421 25.6 135.805 25.104C136.205 24.592 136.749 24.232 137.437 24.024C138.333 23.768 139.717 23.624 141.589 23.592C141.589 22.536 141.541 21.976 141.445 21.912C141.365 21.848 141.109 21.816 140.677 21.816C140.405 21.816 140.029 21.832 139.549 21.864C138.781 21.896 137.741 21.984 136.429 22.128C136.301 21.264 136.205 20.336 136.141 19.344C136.989 19.168 137.877 19.024 138.805 18.912C139.733 18.784 140.565 18.72 141.301 18.72C142.581 18.72 143.541 18.936 144.181 19.368C144.821 19.784 145.237 20.336 145.429 21.024C145.621 21.712 145.709 22.584 145.693 23.64L145.669 27.168L145.741 30H142.333ZM140.269 27.6C140.685 27.6 141.125 27.52 141.589 27.36V25.584H141.397C140.213 25.584 139.557 25.648 139.429 25.776C139.349 25.856 139.285 25.976 139.237 26.136C139.205 26.296 139.189 26.448 139.189 26.592C139.189 26.976 139.277 27.24 139.453 27.384C139.629 27.528 139.901 27.6 140.269 27.6Z" fill="#D24B4B"/>
<path d="M27.9942 4.98125C27.7221 5.68174 27.5923 6.42944 27.6126 7.18064C27.5711 9.26257 27.0147 11.3018 25.993 13.1163C24.9738 14.9277 23.5205 16.4575 21.7636 17.5681C21.1131 17.917 20.5401 18.3943 20.0794 18.971C19.6186 19.5478 19.2797 20.212 19.0831 20.9235C18.8864 21.635 18.8362 22.379 18.9354 23.1105C19.0345 23.842 19.2811 24.5458 19.6601 25.1792C20.1664 26.0254 20.8951 26.7191 21.7636 27.1806C22.2615 27.5261 22.7398 27.8981 23.1958 28.2967L24.3384 29.4156C26.4322 31.6167 27.6064 34.5344 27.621 37.5723C27.5993 38.3236 27.7284 39.0717 28.0006 39.7724C28.2727 40.4731 28.6824 41.1122 29.2056 41.652C29.7264 42.1912 30.3504 42.6199 31.0406 42.9126C31.7307 43.2052 32.4727 43.3559 33.2224 43.3555C33.9716 43.3544 34.7129 43.2031 35.4026 42.9105C36.0923 42.6179 36.7163 42.19 37.2377 41.652C37.7599 41.1112 38.1691 40.4718 38.4411 39.771C38.7132 39.0703 38.8428 38.3223 38.8224 37.5709C38.8101 36.5954 38.5415 35.6404 38.0433 34.8016C37.5469 33.9643 36.8382 33.2729 35.9888 32.7974C32.5496 30.6212 30.1566 26.4604 30.1566 22.3681C30.1651 19.3566 31.3169 16.4607 33.379 14.266L35.9804 11.9555C36.8293 11.4813 37.5384 10.7904 38.0363 9.95127C38.5356 9.11351 38.8028 8.15687 38.8154 7.18064C38.8368 6.4293 38.7076 5.68126 38.4354 4.98061C38.1633 4.27995 37.7537 3.64084 37.2307 3.10092C36.7099 2.56187 36.0857 2.13323 35.3956 1.84056C34.7055 1.54789 33.9636 1.39718 33.214 1.39743C32.4645 1.3983 31.7229 1.54951 31.0329 1.84211C30.343 2.13472 29.7187 2.56277 29.1972 3.10092C28.6752 3.64154 28.2662 4.28076 27.9942 4.98125Z" fill="#CA5252"/>
<path d="M20.3972 34.4604C21.014 35.3862 21.3426 36.4757 21.3426 37.589C21.3417 39.0803 20.7509 40.5107 19.6993 41.5681C18.7849 42.488 17.5788 43.0611 16.2881 43.1889C14.9973 43.3168 13.7023 42.9914 12.6251 42.2688C11.7025 41.6493 10.9842 40.7703 10.5608 39.7429C10.1374 38.7142 10.0269 37.5836 10.2431 36.4924C10.4593 35.4012 10.9926 34.3981 11.7762 33.6086C12.5574 32.8213 13.5556 32.2847 14.6432 32.0672C15.7308 31.8497 16.8586 31.9613 17.8825 32.3876C18.9074 32.8144 19.7826 33.5358 20.3972 34.4604Z" fill="#CA5252"/>
<path d="M18.8517 11.8618C17.93 12.4799 16.8461 12.81 15.7384 12.81V12.8128C15.0021 12.8119 14.2732 12.6657 13.5935 12.3825C12.9138 12.0993 12.2967 11.6847 11.7776 11.1625C10.8602 10.2395 10.2896 9.0282 10.1622 7.73315C10.0347 6.4381 10.3584 5.13877 11.0783 4.05477C11.6929 3.12894 12.5686 2.40654 13.5944 1.97925C14.6183 1.55289 15.7461 1.44132 16.8337 1.6588C17.9213 1.87627 18.9194 2.41291 19.7007 3.20022C20.4846 3.98983 21.0181 4.99321 21.2343 6.08465C21.4505 7.1761 21.3398 8.30707 20.9161 9.33589C20.4926 10.3633 19.7743 11.2423 18.8517 11.8618Z" fill="#CA5252"/>
<path d="M2.34403 25.5121C1.72886 24.5866 1.40021 23.4989 1.39998 22.386C1.40092 20.8944 1.99164 19.4636 3.04333 18.4058C3.56258 17.8838 4.17971 17.4693 4.85937 17.1861C5.53903 16.9029 6.26787 16.7566 7.00417 16.7555C8.11306 16.7555 9.19685 17.0856 10.1175 17.7037C11.0401 18.3232 11.7584 19.2021 12.1818 20.2296C12.6055 21.2584 12.7162 22.3894 12.5 23.4808C12.2838 24.5723 11.7503 25.5757 10.9664 26.3653C10.185 27.1528 9.18666 27.6897 8.09876 27.9071C7.01085 28.1246 5.88282 28.0129 4.85871 27.5862C3.83362 27.1591 2.95842 26.4372 2.34403 25.5121Z" fill="#CA5252"/>
<path d="M45.0629 27.066C44.1412 27.6841 43.0587 28.0142 41.9496 28.0142C41.2134 28.0127 40.4848 27.866 39.8054 27.5825C39.126 27.2991 38.5091 26.8845 37.9901 26.3625C37.0732 25.4399 36.5028 24.229 36.3754 22.9345C36.248 21.64 36.5714 20.3412 37.2908 19.2576C37.9053 18.3325 38.7805 17.6107 39.8055 17.1834C40.8298 16.7592 41.957 16.6487 43.0442 16.8661C44.1314 17.0835 45.1294 17.6189 45.9118 18.4044C46.6954 19.1939 47.2287 20.197 47.4449 21.2882C47.6611 22.3794 47.5506 23.5101 47.1272 24.5387C46.704 25.5666 45.9856 26.4461 45.0629 27.066Z" fill="#CA5252"/>
</svg>
